<svg xmlns="http://www.w3.org/2000/svg" xmlns:rdkit="http://www.rdkit.org/xml" xmlns:xlink="http://www.w3.org/1999/xlink" version="1.1" baseProfile="full" xml:space="preserve" width="750px" height="750px" viewBox="0 0 750 750">
<!-- END OF HEADER -->
<rect style="opacity:1.0;fill:#FFFFFF;stroke:none" width="750.0" height="750.0" x="0.0" y="0.0"> </rect>
<rect style="opacity:1.0;fill:#FFFFFF;stroke:none" width="750.0" height="750.0" x="0.0" y="0.0"> </rect>
<rect style="opacity:1.0;fill:#FFFFFF;stroke:none" width="750.0" height="750.0" x="0.0" y="0.0"> </rect>
<rect style="opacity:1.0;fill:#FFFFFF;stroke:none" width="750.0" height="750.0" x="0.0" y="0.0"> </rect>
<rect style="opacity:1.0;fill:#FFFFFF;stroke:none" width="750.0" height="750.0" x="0.0" y="0.0"> </rect>
<rect style="opacity:1.0;fill:#FFFFFF;stroke:none" width="750.0" height="750.0" x="0.0" y="0.0"> </rect>
<rect style="opacity:1.0;fill:#FFFFFF;stroke:none" width="750.0" height="750.0" x="0.0" y="0.0"> </rect>
<rect style="opacity:1.0;fill:#FFFFFF;stroke:none" width="750.0" height="750.0" x="0.0" y="0.0"> </rect>
<rect style="opacity:1.0;fill:#FFFFFF;stroke:none" width="750.0" height="750.0" x="0.0" y="0.0"> </rect>
<rect style="opacity:1.0;fill:#FFFFFF;stroke:none" width="750.0" height="750.0" x="0.0" y="0.0"> </rect>
<path class="bond-0 atom-0 atom-1" d="M 146.7,128.4 L 156.1,123.0" style="fill:none;fill-rule:evenodd;stroke:#000000;stroke-width:2.0px;stroke-linecap:butt;stroke-linejoin:miter;stroke-opacity:1"/>
<path class="bond-0 atom-0 atom-1" d="M 156.1,123.0 L 165.5,117.6" style="fill:none;fill-rule:evenodd;stroke:#FF0000;stroke-width:2.0px;stroke-linecap:butt;stroke-linejoin:miter;stroke-opacity:1"/>
<path class="bond-0 atom-0 atom-1" d="M 144.0,123.9 L 153.4,118.4" style="fill:none;fill-rule:evenodd;stroke:#000000;stroke-width:2.0px;stroke-linecap:butt;stroke-linejoin:miter;stroke-opacity:1"/>
<path class="bond-0 atom-0 atom-1" d="M 153.4,118.4 L 162.8,113.0" style="fill:none;fill-rule:evenodd;stroke:#FF0000;stroke-width:2.0px;stroke-linecap:butt;stroke-linejoin:miter;stroke-opacity:1"/>
<path class="bond-1 atom-1 atom-2" d="M 172.3,115.3 L 181.2,120.4" style="fill:none;fill-rule:evenodd;stroke:#FF0000;stroke-width:2.0px;stroke-linecap:butt;stroke-linejoin:miter;stroke-opacity:1"/>
<path class="bond-1 atom-1 atom-2" d="M 181.2,120.4 L 190.1,125.5" style="fill:none;fill-rule:evenodd;stroke:#A01EEF;stroke-width:2.0px;stroke-linecap:butt;stroke-linejoin:miter;stroke-opacity:1"/>
<path class="atom-1" d="M 164.8 113.0 Q 164.8 111.2, 165.7 110.2 Q 166.6 109.2, 168.2 109.2 Q 169.9 109.2, 170.8 110.2 Q 171.7 111.2, 171.7 113.0 Q 171.7 114.8, 170.8 115.8 Q 169.9 116.8, 168.2 116.8 Q 166.6 116.8, 165.7 115.8 Q 164.8 114.8, 164.8 113.0 M 168.2 116.0 Q 169.4 116.0, 170.0 115.2 Q 170.6 114.5, 170.6 113.0 Q 170.6 111.5, 170.0 110.7 Q 169.4 110.0, 168.2 110.0 Q 167.1 110.0, 166.5 110.7 Q 165.8 111.5, 165.8 113.0 Q 165.8 114.5, 166.5 115.2 Q 167.1 116.0, 168.2 116.0 " fill="#FF0000"/>
<path class="atom-1" d="M 172.3 110.5 L 173.6 110.5 L 173.6 109.1 L 174.2 109.1 L 174.2 110.5 L 175.5 110.5 L 175.5 111.0 L 174.2 111.0 L 174.2 112.4 L 173.6 112.4 L 173.6 111.0 L 172.3 111.0 L 172.3 110.5 " fill="#FF0000"/>
<path class="atom-2" d="M 190.6 122.4 L 191.6 122.4 L 191.6 129.9 L 190.6 129.9 L 190.6 122.4 " fill="#A01EEF"/>
<path d="M 142.7,126.1 L 142.7,126.1 L 142.7,126.1 L 142.7,126.0 L 142.7,126.0 L 142.7,125.9 L 142.6,125.9 L 142.6,125.8 L 142.6,125.8 L 142.5,125.8 L 142.5,125.7 L 142.5,125.7 L 142.4,125.7 L 142.4,125.7 L 142.4,125.7 L 142.3,125.6 L 142.3,125.6 L 142.2,125.6 L 142.2,125.6 L 142.1,125.6 L 142.1,125.6 L 142.0,125.6 L 142.0,125.6 L 142.0,125.7 L 141.9,125.7 L 141.9,125.7 L 141.8,125.7 L 141.8,125.8 L 141.8,125.8 L 141.7,125.8 L 141.7,125.9 L 141.7,125.9 L 141.7,125.9 L 141.7,126.0 L 141.7,126.0 L 141.6,126.1 L 141.6,126.1 L 141.6,126.2 L 141.6,126.2 L 141.7,126.3 L 141.7,126.3 L 141.7,126.3 L 141.7,126.4 L 141.7,126.4 L 141.7,126.5 L 141.8,126.5 L 141.8,126.5 L 141.8,126.6 L 141.9,126.6 L 141.9,126.6 L 142.0,126.6 L 142.0,126.6 L 142.0,126.7 L 142.1,126.7 L 142.1,126.7 L 142.2,126.7 L 142.2,126.7 L 142.3,126.7 L 142.3,126.7 L 142.4,126.6 L 142.4,126.6 L 142.4,126.6 L 142.5,126.6 L 142.5,126.5 L 142.5,126.5 L 142.6,126.5 L 142.6,126.4 L 142.6,126.4 L 142.7,126.4 L 142.7,126.3 L 142.7,126.3 L 142.7,126.2 L 142.7,126.2 L 142.7,126.1 L 142.2,126.1 Z" style="fill:#000000;fill-rule:evenodd;fill-opacity:1;stroke:#000000;stroke-width:0.0px;stroke-linecap:butt;stroke-linejoin:miter;stroke-opacity:1;"/>
<path class="bond-0 atom-0 atom-1" d="M 489.9,131.5 L 481.1,126.4" style="fill:none;fill-rule:evenodd;stroke:#A01EEF;stroke-width:2.0px;stroke-linecap:butt;stroke-linejoin:miter;stroke-opacity:1"/>
<path class="bond-0 atom-0 atom-1" d="M 481.1,126.4 L 472.2,121.4" style="fill:none;fill-rule:evenodd;stroke:#FF0000;stroke-width:2.0px;stroke-linecap:butt;stroke-linejoin:miter;stroke-opacity:1"/>
<path class="bond-1 atom-1 atom-2" d="M 464.0,121.5 L 456.2,126.1" style="fill:none;fill-rule:evenodd;stroke:#FF0000;stroke-width:2.0px;stroke-linecap:butt;stroke-linejoin:miter;stroke-opacity:1"/>
<path class="bond-1 atom-1 atom-2" d="M 456.2,126.1 L 448.3,130.7" style="fill:none;fill-rule:evenodd;stroke:#FF7F00;stroke-width:2.0px;stroke-linecap:butt;stroke-linejoin:miter;stroke-opacity:1"/>
<path class="bond-2 atom-2 atom-3" d="M 445.4,136.8 L 445.4,145.7" style="fill:none;fill-rule:evenodd;stroke:#FF7F00;stroke-width:2.0px;stroke-linecap:butt;stroke-linejoin:miter;stroke-opacity:1"/>
<path class="bond-2 atom-2 atom-3" d="M 445.4,145.7 L 445.5,154.5" style="fill:none;fill-rule:evenodd;stroke:#7F4C19;stroke-width:2.0px;stroke-linecap:butt;stroke-linejoin:miter;stroke-opacity:1"/>
<path class="bond-3 atom-2 atom-4" d="M 442.3,130.7 L 432.3,125.0" style="fill:none;fill-rule:evenodd;stroke:#FF7F00;stroke-width:2.0px;stroke-linecap:butt;stroke-linejoin:miter;stroke-opacity:1"/>
<path class="bond-3 atom-2 atom-4" d="M 432.3,125.0 L 422.4,119.3" style="fill:none;fill-rule:evenodd;stroke:#000000;stroke-width:2.0px;stroke-linecap:butt;stroke-linejoin:miter;stroke-opacity:1"/>
<path class="bond-4 atom-4 atom-5" d="M 422.4,119.3 L 412.3,123.6 L 413.7,125.9 Z" style="fill:#000000;fill-rule:evenodd;fill-opacity:1;stroke:#000000;stroke-width:2.0px;stroke-linecap:butt;stroke-linejoin:miter;stroke-opacity:1;"/>
<path class="bond-4 atom-4 atom-5" d="M 412.3,123.6 L 405.0,132.5 L 402.3,128.0 Z" style="fill:#FF0000;fill-rule:evenodd;fill-opacity:1;stroke:#FF0000;stroke-width:2.0px;stroke-linecap:butt;stroke-linejoin:miter;stroke-opacity:1;"/>
<path class="bond-4 atom-4 atom-5" d="M 412.3,123.6 L 413.7,125.9 L 405.0,132.5 Z" style="fill:#FF0000;fill-rule:evenodd;fill-opacity:1;stroke:#FF0000;stroke-width:2.0px;stroke-linecap:butt;stroke-linejoin:miter;stroke-opacity:1;"/>
<path class="bond-8 atom-4 atom-9" d="M 422.4,119.3 L 422.3,108.4" style="fill:none;fill-rule:evenodd;stroke:#000000;stroke-width:2.0px;stroke-linecap:butt;stroke-linejoin:miter;stroke-opacity:1"/>
<path class="bond-8 atom-4 atom-9" d="M 422.3,108.4 L 422.2,97.5" style="fill:none;fill-rule:evenodd;stroke:#CCCC00;stroke-width:2.0px;stroke-linecap:butt;stroke-linejoin:miter;stroke-opacity:1"/>
<path class="bond-5 atom-5 atom-6" d="M 395.5,130.3 L 387.7,125.9" style="fill:none;fill-rule:evenodd;stroke:#FF0000;stroke-width:2.0px;stroke-linecap:butt;stroke-linejoin:miter;stroke-opacity:1"/>
<path class="bond-5 atom-5 atom-6" d="M 387.7,125.9 L 380.0,121.5" style="fill:none;fill-rule:evenodd;stroke:#0000FF;stroke-width:2.0px;stroke-linecap:butt;stroke-linejoin:miter;stroke-opacity:1"/>
<path class="bond-6 atom-6 atom-7" d="M 373.1,121.6 L 364.9,126.4" style="fill:none;fill-rule:evenodd;stroke:#0000FF;stroke-width:2.0px;stroke-linecap:butt;stroke-linejoin:miter;stroke-opacity:1"/>
<path class="bond-6 atom-6 atom-7" d="M 364.9,126.4 L 356.8,131.2" style="fill:none;fill-rule:evenodd;stroke:#CCCC00;stroke-width:2.0px;stroke-linecap:butt;stroke-linejoin:miter;stroke-opacity:1"/>
<path class="bond-7 atom-7 atom-8" d="M 350.7,131.2 L 341.3,125.8" style="fill:none;fill-rule:evenodd;stroke:#CCCC00;stroke-width:2.0px;stroke-linecap:butt;stroke-linejoin:miter;stroke-opacity:1"/>
<path class="bond-7 atom-7 atom-8" d="M 341.3,125.8 L 331.9,120.4" style="fill:none;fill-rule:evenodd;stroke:#00CC00;stroke-width:2.0px;stroke-linecap:butt;stroke-linejoin:miter;stroke-opacity:1"/>
<path class="bond-9 atom-9 atom-10" d="M 425.3,91.1 L 433.4,86.3" style="fill:none;fill-rule:evenodd;stroke:#CCCC00;stroke-width:2.0px;stroke-linecap:butt;stroke-linejoin:miter;stroke-opacity:1"/>
<path class="bond-9 atom-9 atom-10" d="M 433.4,86.3 L 441.6,81.6" style="fill:none;fill-rule:evenodd;stroke:#00CC00;stroke-width:2.0px;stroke-linecap:butt;stroke-linejoin:miter;stroke-opacity:1"/>
<path class="atom-0" d="M 490.6 128.4 L 491.6 128.4 L 491.6 135.9 L 490.6 135.9 L 490.6 128.4 " fill="#A01EEF"/>
<path class="atom-1" d="M 464.7 119.1 Q 464.7 117.3, 465.6 116.3 Q 466.5 115.3, 468.1 115.3 Q 469.8 115.3, 470.7 116.3 Q 471.6 117.3, 471.6 119.1 Q 471.6 120.9, 470.7 121.9 Q 469.8 123.0, 468.1 123.0 Q 466.5 123.0, 465.6 121.9 Q 464.7 120.9, 464.7 119.1 M 468.1 122.1 Q 469.3 122.1, 469.9 121.4 Q 470.5 120.6, 470.5 119.1 Q 470.5 117.6, 469.9 116.9 Q 469.3 116.1, 468.1 116.1 Q 467.0 116.1, 466.4 116.9 Q 465.8 117.6, 465.8 119.1 Q 465.8 120.6, 466.4 121.4 Q 467.0 122.1, 468.1 122.1 " fill="#FF0000"/>
<path class="atom-1" d="M 465.2 106.9 L 466.2 106.9 L 466.2 110.0 L 470.1 110.0 L 470.1 106.9 L 471.1 106.9 L 471.1 114.3 L 470.1 114.3 L 470.1 110.9 L 466.2 110.9 L 466.2 114.3 L 465.2 114.3 L 465.2 106.9 " fill="#FF0000"/>
<path class="atom-1" d="M 471.7 108.2 L 473.0 108.2 L 473.0 106.8 L 473.6 106.8 L 473.6 108.2 L 475.0 108.2 L 475.0 108.7 L 473.6 108.7 L 473.6 110.1 L 473.0 110.1 L 473.0 108.7 L 471.7 108.7 L 471.7 108.2 " fill="#FF0000"/>
<path class="atom-2" d="M 445.2 128.7 Q 446.4 128.7, 447.1 129.2 Q 447.7 129.8, 447.7 130.9 Q 447.7 131.9, 447.1 132.5 Q 446.4 133.1, 445.2 133.1 L 444.0 133.1 L 444.0 136.1 L 442.9 136.1 L 442.9 128.7 L 445.2 128.7 M 445.2 132.2 Q 445.9 132.2, 446.3 131.9 Q 446.7 131.5, 446.7 130.9 Q 446.7 130.2, 446.3 129.9 Q 445.9 129.5, 445.2 129.5 L 444.0 129.5 L 444.0 132.2 L 445.2 132.2 " fill="#FF7F00"/>
<path class="atom-3" d="M 446.6 158.6 Q 447.3 158.8, 447.7 159.3 Q 448.0 159.7, 448.0 160.4 Q 448.0 161.4, 447.4 162.0 Q 446.7 162.6, 445.5 162.6 L 442.9 162.6 L 442.9 155.1 L 445.1 155.1 Q 446.4 155.1, 447.1 155.6 Q 447.7 156.1, 447.7 157.1 Q 447.7 158.2, 446.6 158.6 M 443.9 155.9 L 443.9 158.3 L 445.1 158.3 Q 445.9 158.3, 446.3 158.0 Q 446.7 157.7, 446.7 157.1 Q 446.7 155.9, 445.1 155.9 L 443.9 155.9 M 445.5 161.7 Q 446.2 161.7, 446.6 161.4 Q 447.0 161.0, 447.0 160.4 Q 447.0 159.7, 446.5 159.4 Q 446.1 159.1, 445.3 159.1 L 443.9 159.1 L 443.9 161.7 L 445.5 161.7 " fill="#7F4C19"/>
<path class="atom-3" d="M 449.7 157.1 L 449.8 157.9 Q 450.4 157.0, 451.3 157.0 Q 451.6 157.0, 452.0 157.1 L 451.9 158.0 Q 451.4 157.9, 451.2 157.9 Q 450.7 157.9, 450.4 158.1 Q 450.1 158.3, 449.9 158.7 L 449.9 162.6 L 448.9 162.6 L 448.9 157.1 L 449.7 157.1 " fill="#7F4C19"/>
<path class="atom-5" d="M 396.1 132.7 Q 396.1 130.9, 397.0 129.9 Q 397.9 128.9, 399.6 128.9 Q 401.2 128.9, 402.1 129.9 Q 403.0 130.9, 403.0 132.7 Q 403.0 134.5, 402.1 135.5 Q 401.2 136.6, 399.6 136.6 Q 397.9 136.6, 397.0 135.5 Q 396.1 134.5, 396.1 132.7 M 399.6 135.7 Q 400.7 135.7, 401.3 135.0 Q 401.9 134.2, 401.9 132.7 Q 401.9 131.2, 401.3 130.5 Q 400.7 129.7, 399.6 129.7 Q 398.4 129.7, 397.8 130.5 Q 397.2 131.2, 397.2 132.7 Q 397.2 134.2, 397.8 135.0 Q 398.4 135.7, 399.6 135.7 " fill="#FF0000"/>
<path class="atom-6" d="M 374.9 115.8 L 377.4 119.8 Q 377.6 120.2, 378.0 120.9 Q 378.4 121.6, 378.4 121.6 L 378.4 115.8 L 379.4 115.8 L 379.4 123.3 L 378.4 123.3 L 375.8 119.0 Q 375.5 118.5, 375.2 117.9 Q 374.8 117.3, 374.7 117.1 L 374.7 123.3 L 373.8 123.3 L 373.8 115.8 L 374.9 115.8 " fill="#0000FF"/>
<path class="atom-6" d="M 373.7 107.6 L 374.7 107.6 L 374.7 110.8 L 378.5 110.8 L 378.5 107.6 L 379.5 107.6 L 379.5 115.1 L 378.5 115.1 L 378.5 111.6 L 374.7 111.6 L 374.7 115.1 L 373.7 115.1 L 373.7 107.6 " fill="#0000FF"/>
<path class="atom-7" d="M 351.7 135.5 Q 351.8 135.5, 352.1 135.7 Q 352.5 135.8, 352.8 135.9 Q 353.2 136.0, 353.6 136.0 Q 354.3 136.0, 354.7 135.7 Q 355.1 135.3, 355.1 134.7 Q 355.1 134.3, 354.9 134.0 Q 354.7 133.8, 354.4 133.6 Q 354.1 133.5, 353.6 133.4 Q 352.9 133.2, 352.5 133.0 Q 352.1 132.8, 351.8 132.4 Q 351.6 132.0, 351.6 131.3 Q 351.6 130.3, 352.2 129.8 Q 352.8 129.2, 354.1 129.2 Q 355.0 129.2, 356.0 129.6 L 355.7 130.4 Q 354.8 130.0, 354.1 130.0 Q 353.4 130.0, 353.0 130.3 Q 352.6 130.6, 352.6 131.2 Q 352.6 131.6, 352.8 131.8 Q 353.0 132.1, 353.3 132.2 Q 353.6 132.3, 354.1 132.5 Q 354.8 132.7, 355.2 132.9 Q 355.6 133.1, 355.9 133.6 Q 356.2 134.0, 356.2 134.7 Q 356.2 135.7, 355.5 136.3 Q 354.8 136.9, 353.7 136.9 Q 353.0 136.9, 352.5 136.7 Q 352.0 136.6, 351.4 136.3 L 351.7 135.5 " fill="#CCCC00"/>
<path class="atom-8" d="M 323.7 120.1 Q 323.7 118.2, 324.5 117.3 Q 325.4 116.3, 327.1 116.3 Q 328.6 116.3, 329.4 117.4 L 328.7 117.9 Q 328.1 117.1, 327.1 117.1 Q 325.9 117.1, 325.3 117.9 Q 324.7 118.7, 324.7 120.1 Q 324.7 121.6, 325.4 122.3 Q 326.0 123.1, 327.2 123.1 Q 328.0 123.1, 329.0 122.6 L 329.3 123.4 Q 328.9 123.6, 328.3 123.8 Q 327.7 123.9, 327.0 123.9 Q 325.4 123.9, 324.5 122.9 Q 323.7 122.0, 323.7 120.1 " fill="#00CC00"/>
<path class="atom-8" d="M 330.3 115.8 L 331.3 115.8 L 331.3 123.8 L 330.3 123.8 L 330.3 115.8 " fill="#00CC00"/>
<path class="atom-9" d="M 420.1 95.5 Q 420.2 95.5, 420.5 95.6 Q 420.9 95.8, 421.3 95.9 Q 421.7 96.0, 422.0 96.0 Q 422.8 96.0, 423.2 95.6 Q 423.6 95.3, 423.6 94.7 Q 423.6 94.3, 423.4 94.0 Q 423.2 93.8, 422.8 93.6 Q 422.5 93.5, 422.0 93.3 Q 421.3 93.1, 420.9 92.9 Q 420.5 92.7, 420.3 92.3 Q 420.0 91.9, 420.0 91.3 Q 420.0 90.3, 420.6 89.7 Q 421.3 89.2, 422.5 89.2 Q 423.4 89.2, 424.4 89.6 L 424.1 90.4 Q 423.2 90.0, 422.6 90.0 Q 421.8 90.0, 421.4 90.3 Q 421.0 90.6, 421.0 91.1 Q 421.0 91.5, 421.2 91.8 Q 421.5 92.0, 421.7 92.2 Q 422.1 92.3, 422.6 92.5 Q 423.2 92.7, 423.6 92.9 Q 424.0 93.1, 424.3 93.5 Q 424.6 93.9, 424.6 94.7 Q 424.6 95.7, 423.9 96.3 Q 423.2 96.8, 422.1 96.8 Q 421.4 96.8, 420.9 96.7 Q 420.4 96.5, 419.8 96.3 L 420.1 95.5 " fill="#CCCC00"/>
<path class="atom-10" d="M 442.1 79.8 Q 442.1 77.9, 443.0 77.0 Q 443.9 76.0, 445.6 76.0 Q 447.1 76.0, 447.9 77.1 L 447.2 77.7 Q 446.6 76.9, 445.6 76.9 Q 444.4 76.9, 443.8 77.6 Q 443.2 78.4, 443.2 79.8 Q 443.2 81.3, 443.8 82.1 Q 444.5 82.8, 445.7 82.8 Q 446.5 82.8, 447.5 82.3 L 447.7 83.1 Q 447.4 83.4, 446.8 83.5 Q 446.2 83.7, 445.5 83.7 Q 443.9 83.7, 443.0 82.7 Q 442.1 81.7, 442.1 79.8 " fill="#00CC00"/>
<path class="atom-10" d="M 448.8 75.5 L 449.8 75.5 L 449.8 83.6 L 448.8 83.6 L 448.8 75.5 " fill="#00CC00"/>
<path class="bond-0 atom-0 atom-1" d="M 658.5,121.7 L 668.0,121.7" style="fill:none;fill-rule:evenodd;stroke:#0000FF;stroke-width:2.0px;stroke-linecap:butt;stroke-linejoin:miter;stroke-opacity:1"/>
<path class="bond-0 atom-0 atom-1" d="M 668.0,121.7 L 677.4,121.7" style="fill:none;fill-rule:evenodd;stroke:#FF0000;stroke-width:2.0px;stroke-linecap:butt;stroke-linejoin:miter;stroke-opacity:1"/>
<path class="atom-0" d="M 653.4 118.0 L 655.8 122.0 Q 656.1 122.4, 656.4 123.1 Q 656.8 123.8, 656.9 123.8 L 656.9 118.0 L 657.9 118.0 L 657.9 125.5 L 656.8 125.5 L 654.2 121.2 Q 653.9 120.6, 653.6 120.1 Q 653.2 119.5, 653.1 119.3 L 653.1 125.5 L 652.2 125.5 L 652.2 118.0 L 653.4 118.0 " fill="#0000FF"/>
<path class="atom-0" d="M 658.2 119.2 L 660.8 119.2 L 660.8 119.8 L 658.2 119.8 L 658.2 119.2 " fill="#0000FF"/>
<path class="atom-1" d="M 678.0 121.8 Q 678.0 120.0, 678.9 119.0 Q 679.8 118.0, 681.4 118.0 Q 683.1 118.0, 684.0 119.0 Q 684.9 120.0, 684.9 121.8 Q 684.9 123.6, 684.0 124.6 Q 683.1 125.6, 681.4 125.6 Q 679.8 125.6, 678.9 124.6 Q 678.0 123.6, 678.0 121.8 M 681.4 124.8 Q 682.6 124.8, 683.2 124.0 Q 683.8 123.3, 683.8 121.8 Q 683.8 120.3, 683.2 119.6 Q 682.6 118.8, 681.4 118.8 Q 680.3 118.8, 679.7 119.5 Q 679.1 120.3, 679.1 121.8 Q 679.1 123.3, 679.7 124.0 Q 680.3 124.8, 681.4 124.8 " fill="#FF0000"/>
<path class="atom-1" d="M 685.2 119.2 L 687.8 119.2 L 687.8 119.7 L 685.2 119.7 L 685.2 119.2 " fill="#FF0000"/>
<path d="M 651.1,121.7 L 651.1,121.7 L 651.1,121.7 L 651.1,121.6 L 651.1,121.6 L 651.1,121.5 L 651.0,121.5 L 651.0,121.4 L 651.0,121.4 L 651.0,121.4 L 650.9,121.3 L 650.9,121.3 L 650.9,121.3 L 650.8,121.3 L 650.8,121.2 L 650.7,121.2 L 650.7,121.2 L 650.6,121.2 L 650.6,121.2 L 650.6,121.2 L 650.5,121.2 L 650.5,121.2 L 650.4,121.2 L 650.4,121.3 L 650.3,121.3 L 650.3,121.3 L 650.3,121.3 L 650.2,121.4 L 650.2,121.4 L 650.2,121.4 L 650.1,121.5 L 650.1,121.5 L 650.1,121.5 L 650.1,121.6 L 650.1,121.6 L 650.1,121.7 L 650.1,121.7 L 650.1,121.8 L 650.1,121.8 L 650.1,121.9 L 650.1,121.9 L 650.1,121.9 L 650.1,122.0 L 650.1,122.0 L 650.2,122.1 L 650.2,122.1 L 650.2,122.1 L 650.3,122.2 L 650.3,122.2 L 650.3,122.2 L 650.4,122.2 L 650.4,122.2 L 650.5,122.3 L 650.5,122.3 L 650.6,122.3 L 650.6,122.3 L 650.6,122.3 L 650.7,122.3 L 650.7,122.3 L 650.8,122.2 L 650.8,122.2 L 650.9,122.2 L 650.9,122.2 L 650.9,122.1 L 651.0,122.1 L 651.0,122.1 L 651.0,122.0 L 651.0,122.0 L 651.1,122.0 L 651.1,121.9 L 651.1,121.9 L 651.1,121.8 L 651.1,121.8 L 651.1,121.7 L 650.6,121.7 Z" style="fill:#000000;fill-rule:evenodd;fill-opacity:1;stroke:#000000;stroke-width:0.0px;stroke-linecap:butt;stroke-linejoin:miter;stroke-opacity:1;"/>
<path class="bond-0 atom-0 atom-1" d="M 148.4,369.1 L 158.3,374.8" style="fill:none;fill-rule:evenodd;stroke:#CCCC00;stroke-width:2.0px;stroke-linecap:butt;stroke-linejoin:miter;stroke-opacity:1"/>
<path class="bond-0 atom-0 atom-1" d="M 158.3,374.8 L 168.2,380.6" style="fill:none;fill-rule:evenodd;stroke:#000000;stroke-width:2.0px;stroke-linecap:butt;stroke-linejoin:miter;stroke-opacity:1"/>
<path class="bond-1 atom-1 atom-2" d="M 168.2,380.6 L 177.6,375.1" style="fill:none;fill-rule:evenodd;stroke:#000000;stroke-width:2.0px;stroke-linecap:butt;stroke-linejoin:miter;stroke-opacity:1"/>
<path class="bond-1 atom-1 atom-2" d="M 177.6,375.1 L 187.0,369.7" style="fill:none;fill-rule:evenodd;stroke:#FF0000;stroke-width:2.0px;stroke-linecap:butt;stroke-linejoin:miter;stroke-opacity:1"/>
<path class="atom-0" d="M 143.2 369.9 Q 143.3 369.9, 143.7 370.1 Q 144.0 370.2, 144.4 370.3 Q 144.8 370.4, 145.2 370.4 Q 145.9 370.4, 146.3 370.1 Q 146.7 369.7, 146.7 369.1 Q 146.7 368.7, 146.5 368.5 Q 146.3 368.2, 146.0 368.1 Q 145.6 367.9, 145.1 367.8 Q 144.5 367.6, 144.1 367.4 Q 143.7 367.2, 143.4 366.8 Q 143.1 366.4, 143.1 365.7 Q 143.1 364.8, 143.7 364.2 Q 144.4 363.6, 145.6 363.6 Q 146.5 363.6, 147.5 364.0 L 147.3 364.8 Q 146.4 364.5, 145.7 364.5 Q 144.9 364.5, 144.5 364.8 Q 144.1 365.1, 144.2 365.6 Q 144.2 366.0, 144.4 366.2 Q 144.6 366.5, 144.9 366.6 Q 145.2 366.7, 145.7 366.9 Q 146.4 367.1, 146.8 367.3 Q 147.2 367.5, 147.4 368.0 Q 147.7 368.4, 147.7 369.1 Q 147.7 370.2, 147.0 370.7 Q 146.4 371.3, 145.2 371.3 Q 144.5 371.3, 144.0 371.1 Q 143.5 371.0, 142.9 370.7 L 143.2 369.9 " fill="#CCCC00"/>
<path class="atom-0" d="M 148.4 364.8 L 149.7 364.8 L 149.7 363.5 L 150.3 363.5 L 150.3 364.8 L 151.6 364.8 L 151.6 365.3 L 150.3 365.3 L 150.3 366.7 L 149.7 366.7 L 149.7 365.3 L 148.4 365.3 L 148.4 364.8 " fill="#CCCC00"/>
<path class="atom-2" d="M 187.7 367.4 Q 187.7 365.6, 188.6 364.6 Q 189.5 363.6, 191.1 363.6 Q 192.8 363.6, 193.7 364.6 Q 194.5 365.6, 194.5 367.4 Q 194.5 369.2, 193.6 370.2 Q 192.7 371.2, 191.1 371.2 Q 189.5 371.2, 188.6 370.2 Q 187.7 369.2, 187.7 367.4 M 191.1 370.4 Q 192.3 370.4, 192.9 369.6 Q 193.5 368.9, 193.5 367.4 Q 193.5 365.9, 192.9 365.2 Q 192.3 364.4, 191.1 364.4 Q 190.0 364.4, 189.3 365.1 Q 188.7 365.9, 188.7 367.4 Q 188.7 368.9, 189.3 369.6 Q 190.0 370.4, 191.1 370.4 " fill="#FF0000"/>
<path class="atom-2" d="M 194.9 364.8 L 197.5 364.8 L 197.5 365.3 L 194.9 365.3 L 194.9 364.8 " fill="#FF0000"/>
<path d="M 141.9,366.3 L 141.9,366.2 L 141.9,366.2 L 141.9,366.1 L 141.9,366.1 L 141.8,366.1 L 141.8,366.0 L 141.8,366.0 L 141.8,365.9 L 141.7,365.9 L 141.7,365.9 L 141.7,365.9 L 141.6,365.8 L 141.6,365.8 L 141.5,365.8 L 141.5,365.8 L 141.5,365.8 L 141.4,365.8 L 141.4,365.8 L 141.3,365.8 L 141.3,365.8 L 141.2,365.8 L 141.2,365.8 L 141.1,365.8 L 141.1,365.8 L 141.1,365.8 L 141.0,365.9 L 141.0,365.9 L 141.0,365.9 L 140.9,366.0 L 140.9,366.0 L 140.9,366.0 L 140.9,366.1 L 140.9,366.1 L 140.8,366.2 L 140.8,366.2 L 140.8,366.3 L 140.8,366.3 L 140.8,366.3 L 140.8,366.4 L 140.9,366.4 L 140.9,366.5 L 140.9,366.5 L 140.9,366.6 L 140.9,366.6 L 141.0,366.6 L 141.0,366.7 L 141.0,366.7 L 141.1,366.7 L 141.1,366.7 L 141.1,366.8 L 141.2,366.8 L 141.2,366.8 L 141.3,366.8 L 141.3,366.8 L 141.4,366.8 L 141.4,366.8 L 141.5,366.8 L 141.5,366.8 L 141.5,366.8 L 141.6,366.8 L 141.6,366.7 L 141.7,366.7 L 141.7,366.7 L 141.7,366.7 L 141.8,366.6 L 141.8,366.6 L 141.8,366.5 L 141.8,366.5 L 141.9,366.5 L 141.9,366.4 L 141.9,366.4 L 141.9,366.3 L 141.9,366.3 L 141.4,366.3 Z" style="fill:#000000;fill-rule:evenodd;fill-opacity:1;stroke:#000000;stroke-width:0.0px;stroke-linecap:butt;stroke-linejoin:miter;stroke-opacity:1;"/>
<path d="M 141.9,368.4 L 141.9,368.4 L 141.9,368.3 L 141.9,368.3 L 141.9,368.2 L 141.8,368.2 L 141.8,368.1 L 141.8,368.1 L 141.8,368.1 L 141.7,368.0 L 141.7,368.0 L 141.7,368.0 L 141.6,367.9 L 141.6,367.9 L 141.5,367.9 L 141.5,367.9 L 141.5,367.9 L 141.4,367.9 L 141.4,367.9 L 141.3,367.9 L 141.3,367.9 L 141.2,367.9 L 141.2,367.9 L 141.1,367.9 L 141.1,367.9 L 141.1,368.0 L 141.0,368.0 L 141.0,368.0 L 141.0,368.0 L 140.9,368.1 L 140.9,368.1 L 140.9,368.2 L 140.9,368.2 L 140.9,368.2 L 140.8,368.3 L 140.8,368.3 L 140.8,368.4 L 140.8,368.4 L 140.8,368.5 L 140.8,368.5 L 140.9,368.6 L 140.9,368.6 L 140.9,368.6 L 140.9,368.7 L 140.9,368.7 L 141.0,368.7 L 141.0,368.8 L 141.0,368.8 L 141.1,368.8 L 141.1,368.9 L 141.1,368.9 L 141.2,368.9 L 141.2,368.9 L 141.3,368.9 L 141.3,368.9 L 141.4,368.9 L 141.4,368.9 L 141.5,368.9 L 141.5,368.9 L 141.5,368.9 L 141.6,368.9 L 141.6,368.8 L 141.7,368.8 L 141.7,368.8 L 141.7,368.8 L 141.8,368.7 L 141.8,368.7 L 141.8,368.7 L 141.8,368.6 L 141.9,368.6 L 141.9,368.5 L 141.9,368.5 L 141.9,368.4 L 141.9,368.4 L 141.4,368.4 Z" style="fill:#000000;fill-rule:evenodd;fill-opacity:1;stroke:#000000;stroke-width:0.0px;stroke-linecap:butt;stroke-linejoin:miter;stroke-opacity:1;"/>
<path d="M 169.8,382.9 L 169.8,382.9 L 169.8,382.8 L 169.8,382.8 L 169.8,382.8 L 169.8,382.7 L 169.7,382.7 L 169.7,382.6 L 169.7,382.6 L 169.7,382.6 L 169.6,382.5 L 169.6,382.5 L 169.6,382.5 L 169.5,382.5 L 169.5,382.4 L 169.4,382.4 L 169.4,382.4 L 169.3,382.4 L 169.3,382.4 L 169.2,382.4 L 169.2,382.4 L 169.2,382.4 L 169.1,382.4 L 169.1,382.4 L 169.0,382.5 L 169.0,382.5 L 169.0,382.5 L 168.9,382.5 L 168.9,382.6 L 168.9,382.6 L 168.8,382.6 L 168.8,382.7 L 168.8,382.7 L 168.8,382.8 L 168.8,382.8 L 168.8,382.9 L 168.8,382.9 L 168.8,383.0 L 168.8,383.0 L 168.8,383.0 L 168.8,383.1 L 168.8,383.1 L 168.8,383.2 L 168.8,383.2 L 168.9,383.2 L 168.9,383.3 L 168.9,383.3 L 169.0,383.3 L 169.0,383.4 L 169.0,383.4 L 169.1,383.4 L 169.1,383.4 L 169.2,383.4 L 169.2,383.5 L 169.2,383.5 L 169.3,383.5 L 169.3,383.5 L 169.4,383.4 L 169.4,383.4 L 169.5,383.4 L 169.5,383.4 L 169.6,383.4 L 169.6,383.4 L 169.6,383.3 L 169.7,383.3 L 169.7,383.3 L 169.7,383.2 L 169.7,383.2 L 169.8,383.2 L 169.8,383.1 L 169.8,383.1 L 169.8,383.0 L 169.8,383.0 L 169.8,382.9 L 169.3,382.9 Z" style="fill:#000000;fill-rule:evenodd;fill-opacity:1;stroke:#000000;stroke-width:0.0px;stroke-linecap:butt;stroke-linejoin:miter;stroke-opacity:1;"/>
<path d="M 167.7,382.9 L 167.7,382.9 L 167.7,382.8 L 167.7,382.8 L 167.7,382.8 L 167.6,382.7 L 167.6,382.7 L 167.6,382.6 L 167.6,382.6 L 167.5,382.6 L 167.5,382.5 L 167.5,382.5 L 167.4,382.5 L 167.4,382.5 L 167.4,382.4 L 167.3,382.4 L 167.3,382.4 L 167.2,382.4 L 167.2,382.4 L 167.1,382.4 L 167.1,382.4 L 167.0,382.4 L 167.0,382.4 L 167.0,382.4 L 166.9,382.5 L 166.9,382.5 L 166.8,382.5 L 166.8,382.5 L 166.8,382.6 L 166.7,382.6 L 166.7,382.6 L 166.7,382.7 L 166.7,382.7 L 166.7,382.8 L 166.7,382.8 L 166.6,382.9 L 166.6,382.9 L 166.6,383.0 L 166.6,383.0 L 166.7,383.0 L 166.7,383.1 L 166.7,383.1 L 166.7,383.2 L 166.7,383.2 L 166.7,383.2 L 166.8,383.3 L 166.8,383.3 L 166.8,383.3 L 166.9,383.4 L 166.9,383.4 L 167.0,383.4 L 167.0,383.4 L 167.0,383.4 L 167.1,383.5 L 167.1,383.5 L 167.2,383.5 L 167.2,383.5 L 167.3,383.4 L 167.3,383.4 L 167.4,383.4 L 167.4,383.4 L 167.4,383.4 L 167.5,383.4 L 167.5,383.3 L 167.5,383.3 L 167.6,383.3 L 167.6,383.2 L 167.6,383.2 L 167.6,383.2 L 167.7,383.1 L 167.7,383.1 L 167.7,383.0 L 167.7,383.0 L 167.7,382.9 L 167.2,382.9 Z" style="fill:#000000;fill-rule:evenodd;fill-opacity:1;stroke:#000000;stroke-width:0.0px;stroke-linecap:butt;stroke-linejoin:miter;stroke-opacity:1;"/>
<path class="bond-0 atom-0 atom-1" d="M 400.8,373.0 L 408.1,368.8" style="fill:none;fill-rule:evenodd;stroke:#0000FF;stroke-width:2.0px;stroke-linecap:butt;stroke-linejoin:miter;stroke-opacity:1"/>
<path class="bond-0 atom-0 atom-1" d="M 408.1,368.8 L 415.3,364.6" style="fill:none;fill-rule:evenodd;stroke:#CCCC00;stroke-width:2.0px;stroke-linecap:butt;stroke-linejoin:miter;stroke-opacity:1"/>
<path class="bond-1 atom-1 atom-2" d="M 420.0,367.0 L 428.2,371.7" style="fill:none;fill-rule:evenodd;stroke:#CCCC00;stroke-width:2.0px;stroke-linecap:butt;stroke-linejoin:miter;stroke-opacity:1"/>
<path class="bond-1 atom-1 atom-2" d="M 428.2,371.7 L 436.4,376.5" style="fill:none;fill-rule:evenodd;stroke:#0000FF;stroke-width:2.0px;stroke-linecap:butt;stroke-linejoin:miter;stroke-opacity:1"/>
<path class="bond-1 atom-1 atom-2" d="M 422.6,362.4 L 430.8,367.2" style="fill:none;fill-rule:evenodd;stroke:#CCCC00;stroke-width:2.0px;stroke-linecap:butt;stroke-linejoin:miter;stroke-opacity:1"/>
<path class="bond-1 atom-1 atom-2" d="M 430.8,367.2 L 439.0,371.9" style="fill:none;fill-rule:evenodd;stroke:#0000FF;stroke-width:2.0px;stroke-linecap:butt;stroke-linejoin:miter;stroke-opacity:1"/>
<path class="atom-0" d="M 385.8 372.4 L 386.8 372.4 L 386.8 375.6 L 390.6 375.6 L 390.6 372.4 L 391.6 372.4 L 391.6 379.9 L 390.6 379.9 L 390.6 376.4 L 386.8 376.4 L 386.8 379.9 L 385.8 379.9 L 385.8 372.4 " fill="#0000FF"/>
<path class="atom-0" d="M 393.7 372.4 L 396.1 376.4 Q 396.4 376.8, 396.8 377.5 Q 397.2 378.2, 397.2 378.2 L 397.2 372.4 L 398.2 372.4 L 398.2 379.9 L 397.2 379.9 L 394.5 375.6 Q 394.2 375.0, 393.9 374.5 Q 393.6 373.9, 393.5 373.7 L 393.5 379.9 L 392.5 379.9 L 392.5 372.4 L 393.7 372.4 " fill="#0000FF"/>
<path class="atom-0" d="M 398.5 373.6 L 401.1 373.6 L 401.1 374.2 L 398.5 374.2 L 398.5 373.6 " fill="#0000FF"/>
<path class="atom-1" d="M 416.1 365.5 Q 416.2 365.5, 416.5 365.7 Q 416.9 365.8, 417.3 365.9 Q 417.7 366.0, 418.0 366.0 Q 418.8 366.0, 419.2 365.7 Q 419.6 365.3, 419.6 364.7 Q 419.6 364.3, 419.4 364.1 Q 419.2 363.8, 418.8 363.7 Q 418.5 363.5, 418.0 363.4 Q 417.3 363.2, 416.9 363.0 Q 416.5 362.8, 416.3 362.4 Q 416.0 362.0, 416.0 361.3 Q 416.0 360.4, 416.6 359.8 Q 417.3 359.2, 418.5 359.2 Q 419.4 359.2, 420.4 359.6 L 420.1 360.4 Q 419.2 360.1, 418.6 360.1 Q 417.8 360.1, 417.4 360.4 Q 417.0 360.7, 417.0 361.2 Q 417.0 361.6, 417.2 361.8 Q 417.5 362.1, 417.7 362.2 Q 418.1 362.3, 418.6 362.5 Q 419.2 362.7, 419.6 362.9 Q 420.0 363.1, 420.3 363.6 Q 420.6 364.0, 420.6 364.7 Q 420.6 365.8, 419.9 366.3 Q 419.2 366.9, 418.1 366.9 Q 417.4 366.9, 416.9 366.7 Q 416.4 366.6, 415.8 366.3 L 416.1 365.5 " fill="#CCCC00"/>
<path class="atom-2" d="M 439.5 372.4 L 441.9 376.4 Q 442.2 376.8, 442.5 377.5 Q 442.9 378.2, 443.0 378.2 L 443.0 372.4 L 443.9 372.4 L 443.9 379.9 L 442.9 379.9 L 440.3 375.6 Q 440.0 375.0, 439.7 374.5 Q 439.3 373.9, 439.2 373.7 L 439.2 379.9 L 438.3 379.9 L 438.3 372.4 L 439.5 372.4 " fill="#0000FF"/>
<path class="atom-2" d="M 444.3 373.6 L 446.9 373.6 L 446.9 374.2 L 444.3 374.2 L 444.3 373.6 " fill="#0000FF"/>
<path d="M 418.8,358.4 L 418.8,358.4 L 418.7,358.3 L 418.7,358.3 L 418.7,358.2 L 418.7,358.2 L 418.7,358.1 L 418.7,358.1 L 418.6,358.1 L 418.6,358.0 L 418.6,358.0 L 418.5,358.0 L 418.5,358.0 L 418.5,357.9 L 418.4,357.9 L 418.4,357.9 L 418.3,357.9 L 418.3,357.9 L 418.2,357.9 L 418.2,357.9 L 418.1,357.9 L 418.1,357.9 L 418.1,357.9 L 418.0,357.9 L 418.0,357.9 L 417.9,358.0 L 417.9,358.0 L 417.9,358.0 L 417.8,358.1 L 417.8,358.1 L 417.8,358.1 L 417.8,358.2 L 417.7,358.2 L 417.7,358.3 L 417.7,358.3 L 417.7,358.3 L 417.7,358.4 L 417.7,358.4 L 417.7,358.5 L 417.7,358.5 L 417.7,358.6 L 417.7,358.6 L 417.8,358.7 L 417.8,358.7 L 417.8,358.7 L 417.8,358.8 L 417.9,358.8 L 417.9,358.8 L 417.9,358.9 L 418.0,358.9 L 418.0,358.9 L 418.1,358.9 L 418.1,358.9 L 418.1,358.9 L 418.2,358.9 L 418.2,358.9 L 418.3,358.9 L 418.3,358.9 L 418.4,358.9 L 418.4,358.9 L 418.5,358.9 L 418.5,358.9 L 418.5,358.8 L 418.6,358.8 L 418.6,358.8 L 418.6,358.7 L 418.7,358.7 L 418.7,358.7 L 418.7,358.6 L 418.7,358.6 L 418.7,358.5 L 418.7,358.5 L 418.8,358.5 L 418.8,358.4 L 418.2,358.4 Z" style="fill:#000000;fill-rule:evenodd;fill-opacity:1;stroke:#000000;stroke-width:0.0px;stroke-linecap:butt;stroke-linejoin:miter;stroke-opacity:1;"/>
<path class="atom-0" d="M 666.6 368.0 L 669.0 372.0 Q 669.3 372.4, 669.7 373.1 Q 670.0 373.8, 670.1 373.8 L 670.1 368.0 L 671.1 368.0 L 671.1 375.5 L 670.0 375.5 L 667.4 371.2 Q 667.1 370.6, 666.8 370.1 Q 666.5 369.5, 666.4 369.3 L 666.4 375.5 L 665.4 375.5 L 665.4 368.0 L 666.6 368.0 " fill="#0000FF"/>
<path class="atom-0" d="M 671.7 369.4 L 673.0 369.4 L 673.0 368.0 L 673.6 368.0 L 673.6 369.4 L 674.9 369.4 L 674.9 369.9 L 673.6 369.9 L 673.6 371.2 L 673.0 371.2 L 673.0 369.9 L 671.7 369.9 L 671.7 369.4 " fill="#0000FF"/>
<path d="M 677.1,368.6 L 677.1,368.5 L 677.1,368.5 L 677.0,368.4 L 677.0,368.4 L 677.0,368.4 L 677.0,368.3 L 677.0,368.3 L 676.9,368.2 L 676.9,368.2 L 676.9,368.2 L 676.8,368.1 L 676.8,368.1 L 676.8,368.1 L 676.7,368.1 L 676.7,368.1 L 676.6,368.1 L 676.6,368.0 L 676.5,368.0 L 676.5,368.0 L 676.5,368.0 L 676.4,368.1 L 676.4,368.1 L 676.3,368.1 L 676.3,368.1 L 676.2,368.1 L 676.2,368.2 L 676.2,368.2 L 676.1,368.2 L 676.1,368.3 L 676.1,368.3 L 676.1,368.3 L 676.0,368.4 L 676.0,368.4 L 676.0,368.5 L 676.0,368.5 L 676.0,368.5 L 676.0,368.6 L 676.0,368.6 L 676.0,368.7 L 676.0,368.7 L 676.0,368.8 L 676.1,368.8 L 676.1,368.9 L 676.1,368.9 L 676.1,368.9 L 676.2,369.0 L 676.2,369.0 L 676.2,369.0 L 676.3,369.0 L 676.3,369.1 L 676.4,369.1 L 676.4,369.1 L 676.5,369.1 L 676.5,369.1 L 676.5,369.1 L 676.6,369.1 L 676.6,369.1 L 676.7,369.1 L 676.7,369.1 L 676.8,369.0 L 676.8,369.0 L 676.8,369.0 L 676.9,369.0 L 676.9,368.9 L 676.9,368.9 L 677.0,368.9 L 677.0,368.8 L 677.0,368.8 L 677.0,368.8 L 677.0,368.7 L 677.1,368.7 L 677.1,368.6 L 677.1,368.6 L 676.5,368.6 Z" style="fill:#000000;fill-rule:evenodd;fill-opacity:1;stroke:#000000;stroke-width:0.0px;stroke-linecap:butt;stroke-linejoin:miter;stroke-opacity:1;"/>
<path d="M 677.1,374.9 L 677.1,374.9 L 677.1,374.8 L 677.0,374.8 L 677.0,374.7 L 677.0,374.7 L 677.0,374.7 L 677.0,374.6 L 676.9,374.6 L 676.9,374.5 L 676.9,374.5 L 676.8,374.5 L 676.8,374.5 L 676.8,374.4 L 676.7,374.4 L 676.7,374.4 L 676.6,374.4 L 676.6,374.4 L 676.5,374.4 L 676.5,374.4 L 676.5,374.4 L 676.4,374.4 L 676.4,374.4 L 676.3,374.4 L 676.3,374.4 L 676.2,374.5 L 676.2,374.5 L 676.2,374.5 L 676.1,374.6 L 676.1,374.6 L 676.1,374.6 L 676.1,374.7 L 676.0,374.7 L 676.0,374.8 L 676.0,374.8 L 676.0,374.8 L 676.0,374.9 L 676.0,374.9 L 676.0,375.0 L 676.0,375.0 L 676.0,375.1 L 676.0,375.1 L 676.1,375.2 L 676.1,375.2 L 676.1,375.2 L 676.1,375.3 L 676.2,375.3 L 676.2,375.3 L 676.2,375.4 L 676.3,375.4 L 676.3,375.4 L 676.4,375.4 L 676.4,375.4 L 676.5,375.4 L 676.5,375.4 L 676.5,375.4 L 676.6,375.4 L 676.6,375.4 L 676.7,375.4 L 676.7,375.4 L 676.8,375.4 L 676.8,375.4 L 676.8,375.3 L 676.9,375.3 L 676.9,375.3 L 676.9,375.2 L 677.0,375.2 L 677.0,375.2 L 677.0,375.1 L 677.0,375.1 L 677.0,375.0 L 677.1,375.0 L 677.1,375.0 L 677.1,374.9 L 676.5,374.9 Z" style="fill:#000000;fill-rule:evenodd;fill-opacity:1;stroke:#000000;stroke-width:0.0px;stroke-linecap:butt;stroke-linejoin:miter;stroke-opacity:1;"/>
<path d="M 677.1,370.7 L 677.1,370.6 L 677.1,370.6 L 677.0,370.6 L 677.0,370.5 L 677.0,370.5 L 677.0,370.4 L 677.0,370.4 L 676.9,370.4 L 676.9,370.3 L 676.9,370.3 L 676.8,370.3 L 676.8,370.2 L 676.8,370.2 L 676.7,370.2 L 676.7,370.2 L 676.6,370.2 L 676.6,370.2 L 676.5,370.2 L 676.5,370.2 L 676.5,370.2 L 676.4,370.2 L 676.4,370.2 L 676.3,370.2 L 676.3,370.2 L 676.2,370.2 L 676.2,370.3 L 676.2,370.3 L 676.1,370.3 L 676.1,370.4 L 676.1,370.4 L 676.1,370.4 L 676.0,370.5 L 676.0,370.5 L 676.0,370.6 L 676.0,370.6 L 676.0,370.7 L 676.0,370.7 L 676.0,370.8 L 676.0,370.8 L 676.0,370.8 L 676.0,370.9 L 676.1,370.9 L 676.1,371.0 L 676.1,371.0 L 676.1,371.0 L 676.2,371.1 L 676.2,371.1 L 676.2,371.1 L 676.3,371.2 L 676.3,371.2 L 676.4,371.2 L 676.4,371.2 L 676.5,371.2 L 676.5,371.2 L 676.5,371.2 L 676.6,371.2 L 676.6,371.2 L 676.7,371.2 L 676.7,371.2 L 676.8,371.2 L 676.8,371.1 L 676.8,371.1 L 676.9,371.1 L 676.9,371.1 L 676.9,371.0 L 677.0,371.0 L 677.0,370.9 L 677.0,370.9 L 677.0,370.9 L 677.0,370.8 L 677.1,370.8 L 677.1,370.7 L 677.1,370.7 L 676.5,370.7 Z" style="fill:#000000;fill-rule:evenodd;fill-opacity:1;stroke:#000000;stroke-width:0.0px;stroke-linecap:butt;stroke-linejoin:miter;stroke-opacity:1;"/>
<path d="M 677.1,372.8 L 677.1,372.8 L 677.1,372.7 L 677.0,372.7 L 677.0,372.6 L 677.0,372.6 L 677.0,372.5 L 677.0,372.5 L 676.9,372.5 L 676.9,372.4 L 676.9,372.4 L 676.8,372.4 L 676.8,372.3 L 676.8,372.3 L 676.7,372.3 L 676.7,372.3 L 676.6,372.3 L 676.6,372.3 L 676.5,372.3 L 676.5,372.3 L 676.5,372.3 L 676.4,372.3 L 676.4,372.3 L 676.3,372.3 L 676.3,372.3 L 676.2,372.4 L 676.2,372.4 L 676.2,372.4 L 676.1,372.4 L 676.1,372.5 L 676.1,372.5 L 676.1,372.6 L 676.0,372.6 L 676.0,372.6 L 676.0,372.7 L 676.0,372.7 L 676.0,372.8 L 676.0,372.8 L 676.0,372.9 L 676.0,372.9 L 676.0,373.0 L 676.0,373.0 L 676.1,373.0 L 676.1,373.1 L 676.1,373.1 L 676.1,373.2 L 676.2,373.2 L 676.2,373.2 L 676.2,373.2 L 676.3,373.3 L 676.3,373.3 L 676.4,373.3 L 676.4,373.3 L 676.5,373.3 L 676.5,373.3 L 676.5,373.3 L 676.6,373.3 L 676.6,373.3 L 676.7,373.3 L 676.7,373.3 L 676.8,373.3 L 676.8,373.3 L 676.8,373.2 L 676.9,373.2 L 676.9,373.2 L 676.9,373.1 L 677.0,373.1 L 677.0,373.1 L 677.0,373.0 L 677.0,373.0 L 677.0,372.9 L 677.1,372.9 L 677.1,372.8 L 677.1,372.8 L 676.5,372.8 Z" style="fill:#000000;fill-rule:evenodd;fill-opacity:1;stroke:#000000;stroke-width:0.0px;stroke-linecap:butt;stroke-linejoin:miter;stroke-opacity:1;"/>
<path class="bond-0 atom-0 atom-1" d="M 129.8,622.8 L 136.2,619.1" style="fill:none;fill-rule:evenodd;stroke:#0000FF;stroke-width:2.0px;stroke-linecap:butt;stroke-linejoin:miter;stroke-opacity:1"/>
<path class="bond-0 atom-0 atom-1" d="M 136.2,619.1 L 142.5,615.5" style="fill:none;fill-rule:evenodd;stroke:#FF7F00;stroke-width:2.0px;stroke-linecap:butt;stroke-linejoin:miter;stroke-opacity:1"/>
<path class="bond-1 atom-1 atom-2" d="M 148.4,615.6 L 158.3,621.3" style="fill:none;fill-rule:evenodd;stroke:#FF7F00;stroke-width:2.0px;stroke-linecap:butt;stroke-linejoin:miter;stroke-opacity:1"/>
<path class="bond-1 atom-1 atom-2" d="M 158.3,621.3 L 168.2,627.0" style="fill:none;fill-rule:evenodd;stroke:#000000;stroke-width:2.0px;stroke-linecap:butt;stroke-linejoin:miter;stroke-opacity:1"/>
<path class="bond-2 atom-2 atom-3" d="M 168.2,627.0 L 177.6,621.6" style="fill:none;fill-rule:evenodd;stroke:#000000;stroke-width:2.0px;stroke-linecap:butt;stroke-linejoin:miter;stroke-opacity:1"/>
<path class="bond-2 atom-2 atom-3" d="M 177.6,621.6 L 187.0,616.2" style="fill:none;fill-rule:evenodd;stroke:#FF0000;stroke-width:2.0px;stroke-linecap:butt;stroke-linejoin:miter;stroke-opacity:1"/>
<path class="bond-3 atom-3 atom-4" d="M 195.2,616.2 L 210.0,624.7" style="fill:none;fill-rule:evenodd;stroke:#FF0000;stroke-width:2.0px;stroke-linecap:butt;stroke-linejoin:miter;stroke-opacity:1"/>
<path class="atom-0" d="M 112.9 623.3 L 113.9 623.3 L 113.9 626.5 L 117.7 626.5 L 117.7 623.3 L 118.7 623.3 L 118.7 630.8 L 117.7 630.8 L 117.7 627.3 L 113.9 627.3 L 113.9 630.8 L 112.9 630.8 L 112.9 623.3 " fill="#0000FF"/>
<path class="atom-0" d="M 120.8 623.3 L 123.3 627.3 Q 123.5 627.6, 123.9 628.3 Q 124.3 629.1, 124.3 629.1 L 124.3 623.3 L 125.3 623.3 L 125.3 630.8 L 124.3 630.8 L 121.6 626.4 Q 121.3 625.9, 121.0 625.3 Q 120.7 624.8, 120.6 624.6 L 120.6 630.8 L 119.6 630.8 L 119.6 623.3 L 120.8 623.3 " fill="#0000FF"/>
<path class="atom-0" d="M 125.9 624.6 L 127.2 624.6 L 127.2 623.2 L 127.8 623.2 L 127.8 624.6 L 129.2 624.6 L 129.2 625.1 L 127.8 625.1 L 127.8 626.5 L 127.2 626.5 L 127.2 625.1 L 125.9 625.1 L 125.9 624.6 " fill="#0000FF"/>
<path class="atom-1" d="M 145.2 610.1 Q 146.4 610.1, 147.1 610.7 Q 147.7 611.2, 147.7 612.3 Q 147.7 613.3, 147.1 613.9 Q 146.4 614.5, 145.2 614.5 L 144.0 614.5 L 144.0 617.6 L 143.0 617.6 L 143.0 610.1 L 145.2 610.1 M 145.2 613.6 Q 145.9 613.6, 146.3 613.3 Q 146.7 612.9, 146.7 612.3 Q 146.7 611.6, 146.3 611.3 Q 145.9 610.9, 145.2 610.9 L 144.0 610.9 L 144.0 613.6 L 145.2 613.6 " fill="#FF7F00"/>
<path class="atom-3" d="M 187.7 613.8 Q 187.7 612.0, 188.6 611.0 Q 189.5 610.0, 191.1 610.0 Q 192.8 610.0, 193.7 611.0 Q 194.5 612.0, 194.5 613.8 Q 194.5 615.7, 193.6 616.7 Q 192.7 617.7, 191.1 617.7 Q 189.5 617.7, 188.6 616.7 Q 187.7 615.7, 187.7 613.8 M 191.1 616.9 Q 192.3 616.9, 192.9 616.1 Q 193.5 615.3, 193.5 613.8 Q 193.5 612.4, 192.9 611.6 Q 192.3 610.9, 191.1 610.9 Q 190.0 610.9, 189.3 611.6 Q 188.7 612.4, 188.7 613.8 Q 188.7 615.3, 189.3 616.1 Q 190.0 616.9, 191.1 616.9 " fill="#FF0000"/>
<path class="atom-4" d="M 210.6 627.0 Q 210.6 625.3, 211.4 624.2 Q 212.3 623.2, 214.0 623.2 Q 215.7 623.2, 216.5 624.2 Q 217.4 625.3, 217.4 627.0 Q 217.4 628.9, 216.5 629.9 Q 215.6 630.9, 214.0 630.9 Q 212.3 630.9, 211.4 629.9 Q 210.6 628.9, 210.6 627.0 M 214.0 630.1 Q 215.1 630.1, 215.8 629.3 Q 216.4 628.6, 216.4 627.0 Q 216.4 625.6, 215.8 624.8 Q 215.1 624.1, 214.0 624.1 Q 212.9 624.1, 212.2 624.8 Q 211.6 625.6, 211.6 627.0 Q 211.6 628.6, 212.2 629.3 Q 212.9 630.1, 214.0 630.1 " fill="#FF0000"/>
<path class="atom-4" d="M 217.8 624.5 L 220.3 624.5 L 220.3 625.0 L 217.8 625.0 L 217.8 624.5 " fill="#FF0000"/>
<path d="M 111.8,626.0 L 111.8,625.9 L 111.8,625.9 L 111.8,625.8 L 111.8,625.8 L 111.8,625.8 L 111.8,625.7 L 111.7,625.7 L 111.7,625.6 L 111.7,625.6 L 111.6,625.6 L 111.6,625.5 L 111.6,625.5 L 111.5,625.5 L 111.5,625.5 L 111.4,625.5 L 111.4,625.5 L 111.4,625.4 L 111.3,625.4 L 111.3,625.4 L 111.2,625.4 L 111.2,625.5 L 111.1,625.5 L 111.1,625.5 L 111.0,625.5 L 111.0,625.5 L 111.0,625.6 L 110.9,625.6 L 110.9,625.6 L 110.9,625.7 L 110.9,625.7 L 110.8,625.7 L 110.8,625.8 L 110.8,625.8 L 110.8,625.9 L 110.8,625.9 L 110.8,625.9 L 110.8,626.0 L 110.8,626.0 L 110.8,626.1 L 110.8,626.1 L 110.8,626.2 L 110.8,626.2 L 110.9,626.3 L 110.9,626.3 L 110.9,626.3 L 110.9,626.4 L 111.0,626.4 L 111.0,626.4 L 111.0,626.4 L 111.1,626.5 L 111.1,626.5 L 111.2,626.5 L 111.2,626.5 L 111.3,626.5 L 111.3,626.5 L 111.4,626.5 L 111.4,626.5 L 111.4,626.5 L 111.5,626.5 L 111.5,626.4 L 111.6,626.4 L 111.6,626.4 L 111.6,626.4 L 111.7,626.3 L 111.7,626.3 L 111.7,626.3 L 111.8,626.2 L 111.8,626.2 L 111.8,626.1 L 111.8,626.1 L 111.8,626.1 L 111.8,626.0 L 111.8,626.0 L 111.3,626.0 Z" style="fill:#000000;fill-rule:evenodd;fill-opacity:1;stroke:#000000;stroke-width:0.0px;stroke-linecap:butt;stroke-linejoin:miter;stroke-opacity:1;"/>
<path d="M 111.8,628.1 L 111.8,628.0 L 111.8,628.0 L 111.8,628.0 L 111.8,627.9 L 111.8,627.9 L 111.8,627.8 L 111.7,627.8 L 111.7,627.7 L 111.7,627.7 L 111.6,627.7 L 111.6,627.7 L 111.6,627.6 L 111.5,627.6 L 111.5,627.6 L 111.4,627.6 L 111.4,627.6 L 111.4,627.6 L 111.3,627.6 L 111.3,627.6 L 111.2,627.6 L 111.2,627.6 L 111.1,627.6 L 111.1,627.6 L 111.0,627.6 L 111.0,627.6 L 111.0,627.7 L 110.9,627.7 L 110.9,627.7 L 110.9,627.8 L 110.9,627.8 L 110.8,627.8 L 110.8,627.9 L 110.8,627.9 L 110.8,628.0 L 110.8,628.0 L 110.8,628.1 L 110.8,628.1 L 110.8,628.2 L 110.8,628.2 L 110.8,628.2 L 110.8,628.3 L 110.8,628.3 L 110.9,628.4 L 110.9,628.4 L 110.9,628.4 L 110.9,628.5 L 111.0,628.5 L 111.0,628.5 L 111.0,628.6 L 111.1,628.6 L 111.1,628.6 L 111.2,628.6 L 111.2,628.6 L 111.3,628.6 L 111.3,628.6 L 111.4,628.6 L 111.4,628.6 L 111.4,628.6 L 111.5,628.6 L 111.5,628.6 L 111.6,628.5 L 111.6,628.5 L 111.6,628.5 L 111.7,628.5 L 111.7,628.4 L 111.7,628.4 L 111.8,628.3 L 111.8,628.3 L 111.8,628.3 L 111.8,628.2 L 111.8,628.2 L 111.8,628.1 L 111.8,628.1 L 111.3,628.1 Z" style="fill:#000000;fill-rule:evenodd;fill-opacity:1;stroke:#000000;stroke-width:0.0px;stroke-linecap:butt;stroke-linejoin:miter;stroke-opacity:1;"/>
<path d="M 145.9,609.3 L 145.9,609.2 L 145.9,609.2 L 145.9,609.1 L 145.8,609.1 L 145.8,609.1 L 145.8,609.0 L 145.8,609.0 L 145.7,608.9 L 145.7,608.9 L 145.7,608.9 L 145.6,608.9 L 145.6,608.8 L 145.6,608.8 L 145.5,608.8 L 145.5,608.8 L 145.4,608.8 L 145.4,608.8 L 145.4,608.8 L 145.3,608.8 L 145.3,608.8 L 145.2,608.8 L 145.2,608.8 L 145.1,608.8 L 145.1,608.8 L 145.1,608.8 L 145.0,608.9 L 145.0,608.9 L 144.9,608.9 L 144.9,609.0 L 144.9,609.0 L 144.9,609.0 L 144.9,609.1 L 144.8,609.1 L 144.8,609.2 L 144.8,609.2 L 144.8,609.3 L 144.8,609.3 L 144.8,609.3 L 144.8,609.4 L 144.8,609.4 L 144.9,609.5 L 144.9,609.5 L 144.9,609.6 L 144.9,609.6 L 144.9,609.6 L 145.0,609.7 L 145.0,609.7 L 145.1,609.7 L 145.1,609.7 L 145.1,609.8 L 145.2,609.8 L 145.2,609.8 L 145.3,609.8 L 145.3,609.8 L 145.4,609.8 L 145.4,609.8 L 145.4,609.8 L 145.5,609.8 L 145.5,609.8 L 145.6,609.8 L 145.6,609.7 L 145.6,609.7 L 145.7,609.7 L 145.7,609.7 L 145.7,609.6 L 145.8,609.6 L 145.8,609.5 L 145.8,609.5 L 145.8,609.5 L 145.9,609.4 L 145.9,609.4 L 145.9,609.3 L 145.9,609.3 L 145.3,609.3 Z" style="fill:#000000;fill-rule:evenodd;fill-opacity:1;stroke:#000000;stroke-width:0.0px;stroke-linecap:butt;stroke-linejoin:miter;stroke-opacity:1;"/>
<path d="M 168.8,629.4 L 168.8,629.4 L 168.7,629.3 L 168.7,629.3 L 168.7,629.2 L 168.7,629.2 L 168.7,629.1 L 168.7,629.1 L 168.6,629.1 L 168.6,629.0 L 168.6,629.0 L 168.5,629.0 L 168.5,629.0 L 168.5,628.9 L 168.4,628.9 L 168.4,628.9 L 168.3,628.9 L 168.3,628.9 L 168.2,628.9 L 168.2,628.9 L 168.1,628.9 L 168.1,628.9 L 168.1,628.9 L 168.0,628.9 L 168.0,628.9 L 167.9,629.0 L 167.9,629.0 L 167.9,629.0 L 167.8,629.1 L 167.8,629.1 L 167.8,629.1 L 167.8,629.2 L 167.7,629.2 L 167.7,629.2 L 167.7,629.3 L 167.7,629.3 L 167.7,629.4 L 167.7,629.4 L 167.7,629.5 L 167.7,629.5 L 167.7,629.6 L 167.7,629.6 L 167.8,629.6 L 167.8,629.7 L 167.8,629.7 L 167.8,629.8 L 167.9,629.8 L 167.9,629.8 L 167.9,629.8 L 168.0,629.9 L 168.0,629.9 L 168.1,629.9 L 168.1,629.9 L 168.1,629.9 L 168.2,629.9 L 168.2,629.9 L 168.3,629.9 L 168.3,629.9 L 168.4,629.9 L 168.4,629.9 L 168.5,629.9 L 168.5,629.9 L 168.5,629.8 L 168.6,629.8 L 168.6,629.8 L 168.6,629.7 L 168.7,629.7 L 168.7,629.7 L 168.7,629.6 L 168.7,629.6 L 168.7,629.5 L 168.7,629.5 L 168.8,629.5 L 168.8,629.4 L 168.2,629.4 Z" style="fill:#000000;fill-rule:evenodd;fill-opacity:1;stroke:#000000;stroke-width:0.0px;stroke-linecap:butt;stroke-linejoin:miter;stroke-opacity:1;"/>
<path class="bond-0 atom-0 atom-1" d="M 402.7,621.9 L 409.1,618.2" style="fill:none;fill-rule:evenodd;stroke:#0000FF;stroke-width:2.0px;stroke-linecap:butt;stroke-linejoin:miter;stroke-opacity:1"/>
<path class="bond-0 atom-0 atom-1" d="M 409.1,618.2 L 415.4,614.6" style="fill:none;fill-rule:evenodd;stroke:#CCCC00;stroke-width:2.0px;stroke-linecap:butt;stroke-linejoin:miter;stroke-opacity:1"/>
<path class="bond-1 atom-1 atom-2" d="M 420.0,617.0 L 427.9,621.6" style="fill:none;fill-rule:evenodd;stroke:#CCCC00;stroke-width:2.0px;stroke-linecap:butt;stroke-linejoin:miter;stroke-opacity:1"/>
<path class="bond-1 atom-1 atom-2" d="M 427.9,621.6 L 435.8,626.1" style="fill:none;fill-rule:evenodd;stroke:#FF0000;stroke-width:2.0px;stroke-linecap:butt;stroke-linejoin:miter;stroke-opacity:1"/>
<path class="bond-1 atom-1 atom-2" d="M 422.6,612.4 L 430.5,617.0" style="fill:none;fill-rule:evenodd;stroke:#CCCC00;stroke-width:2.0px;stroke-linecap:butt;stroke-linejoin:miter;stroke-opacity:1"/>
<path class="bond-1 atom-1 atom-2" d="M 430.5,617.0 L 438.4,621.5" style="fill:none;fill-rule:evenodd;stroke:#FF0000;stroke-width:2.0px;stroke-linecap:butt;stroke-linejoin:miter;stroke-opacity:1"/>
<path class="atom-0" d="M 382.1 622.4 L 383.1 622.4 L 383.1 625.6 L 386.9 625.6 L 386.9 622.4 L 387.9 622.4 L 387.9 629.9 L 386.9 629.9 L 386.9 626.4 L 383.1 626.4 L 383.1 629.9 L 382.1 629.9 L 382.1 622.4 " fill="#0000FF"/>
<path class="atom-0" d="M 388.3 629.6 Q 388.5 629.2, 388.9 628.9 Q 389.4 628.6, 390.0 628.6 Q 390.7 628.6, 391.1 629.0 Q 391.5 629.4, 391.5 630.2 Q 391.5 630.9, 391.0 631.6 Q 390.5 632.3, 389.3 633.1 L 391.6 633.1 L 391.6 633.6 L 388.3 633.6 L 388.3 633.2 Q 389.2 632.5, 389.8 632.0 Q 390.3 631.5, 390.6 631.1 Q 390.8 630.7, 390.8 630.2 Q 390.8 629.7, 390.6 629.5 Q 390.4 629.2, 390.0 629.2 Q 389.6 629.2, 389.3 629.4 Q 389.0 629.5, 388.8 629.9 L 388.3 629.6 " fill="#0000FF"/>
<path class="atom-0" d="M 393.7 622.4 L 396.1 626.4 Q 396.4 626.8, 396.8 627.5 Q 397.2 628.2, 397.2 628.2 L 397.2 622.4 L 398.2 622.4 L 398.2 629.9 L 397.2 629.9 L 394.5 625.6 Q 394.2 625.0, 393.9 624.5 Q 393.6 623.9, 393.5 623.7 L 393.5 629.9 L 392.5 629.9 L 392.5 622.4 L 393.7 622.4 " fill="#0000FF"/>
<path class="atom-0" d="M 398.8 623.8 L 400.1 623.8 L 400.1 622.4 L 400.7 622.4 L 400.7 623.8 L 402.1 623.8 L 402.1 624.3 L 400.7 624.3 L 400.7 625.7 L 400.1 625.7 L 400.1 624.3 L 398.8 624.3 L 398.8 623.8 " fill="#0000FF"/>
<path class="atom-1" d="M 416.1 615.5 Q 416.2 615.5, 416.5 615.7 Q 416.9 615.8, 417.3 615.9 Q 417.7 616.0, 418.0 616.0 Q 418.8 616.0, 419.2 615.7 Q 419.6 615.3, 419.6 614.7 Q 419.6 614.3, 419.4 614.1 Q 419.2 613.8, 418.8 613.7 Q 418.5 613.5, 418.0 613.4 Q 417.3 613.2, 416.9 613.0 Q 416.5 612.8, 416.3 612.4 Q 416.0 612.0, 416.0 611.3 Q 416.0 610.4, 416.6 609.8 Q 417.3 609.2, 418.5 609.2 Q 419.4 609.2, 420.4 609.6 L 420.1 610.4 Q 419.2 610.1, 418.6 610.1 Q 417.8 610.1, 417.4 610.4 Q 417.0 610.7, 417.0 611.2 Q 417.0 611.6, 417.2 611.8 Q 417.5 612.1, 417.7 612.2 Q 418.1 612.3, 418.6 612.5 Q 419.2 612.7, 419.6 612.9 Q 420.0 613.1, 420.3 613.6 Q 420.6 614.0, 420.6 614.7 Q 420.6 615.8, 419.9 616.3 Q 419.2 616.9, 418.1 616.9 Q 417.4 616.9, 416.9 616.7 Q 416.4 616.6, 415.8 616.3 L 416.1 615.5 " fill="#CCCC00"/>
<path class="atom-1" d="M 415.3 600.8 L 416.3 600.8 L 416.3 603.9 L 420.1 603.9 L 420.1 600.8 L 421.2 600.8 L 421.2 608.2 L 420.1 608.2 L 420.1 604.8 L 416.3 604.8 L 416.3 608.2 L 415.3 608.2 L 415.3 600.8 " fill="#CCCC00"/>
<path class="atom-2" d="M 437.7 626.2 Q 437.7 624.4, 438.6 623.4 Q 439.5 622.4, 441.1 622.4 Q 442.8 622.4, 443.7 623.4 Q 444.5 624.4, 444.5 626.2 Q 444.5 628.0, 443.6 629.0 Q 442.7 630.0, 441.1 630.0 Q 439.5 630.0, 438.6 629.0 Q 437.7 628.0, 437.7 626.2 M 441.1 629.2 Q 442.3 629.2, 442.9 628.4 Q 443.5 627.7, 443.5 626.2 Q 443.5 624.7, 442.9 624.0 Q 442.3 623.2, 441.1 623.2 Q 440.0 623.2, 439.3 623.9 Q 438.7 624.7, 438.7 626.2 Q 438.7 627.7, 439.3 628.4 Q 440.0 629.2, 441.1 629.2 " fill="#FF0000"/>
<path class="atom-2" d="M 445.4 622.4 L 446.5 622.4 L 446.5 625.6 L 450.3 625.6 L 450.3 622.4 L 451.3 622.4 L 451.3 629.9 L 450.3 629.9 L 450.3 626.5 L 446.5 626.5 L 446.5 629.9 L 445.4 629.9 L 445.4 622.4 " fill="#FF0000"/>
<path class="atom-2" d="M 451.9 623.8 L 453.2 623.8 L 453.2 622.4 L 453.8 622.4 L 453.8 623.8 L 455.2 623.8 L 455.2 624.3 L 453.8 624.3 L 453.8 625.7 L 453.2 625.7 L 453.2 624.3 L 451.9 624.3 L 451.9 623.8 " fill="#FF0000"/>
<path d="M 381.0,626.1 L 381.0,626.1 L 381.0,626.1 L 381.0,626.0 L 381.0,626.0 L 381.0,625.9 L 381.0,625.9 L 380.9,625.8 L 380.9,625.8 L 380.9,625.8 L 380.9,625.7 L 380.8,625.7 L 380.8,625.7 L 380.7,625.7 L 380.7,625.7 L 380.7,625.6 L 380.6,625.6 L 380.6,625.6 L 380.5,625.6 L 380.5,625.6 L 380.4,625.6 L 380.4,625.6 L 380.3,625.6 L 380.3,625.7 L 380.3,625.7 L 380.2,625.7 L 380.2,625.7 L 380.1,625.8 L 380.1,625.8 L 380.1,625.8 L 380.1,625.9 L 380.0,625.9 L 380.0,625.9 L 380.0,626.0 L 380.0,626.0 L 380.0,626.1 L 380.0,626.1 L 380.0,626.2 L 380.0,626.2 L 380.0,626.3 L 380.0,626.3 L 380.0,626.3 L 380.0,626.4 L 380.1,626.4 L 380.1,626.5 L 380.1,626.5 L 380.1,626.5 L 380.2,626.6 L 380.2,626.6 L 380.3,626.6 L 380.3,626.6 L 380.3,626.6 L 380.4,626.7 L 380.4,626.7 L 380.5,626.7 L 380.5,626.7 L 380.6,626.7 L 380.6,626.7 L 380.7,626.7 L 380.7,626.6 L 380.7,626.6 L 380.8,626.6 L 380.8,626.6 L 380.9,626.5 L 380.9,626.5 L 380.9,626.5 L 380.9,626.4 L 381.0,626.4 L 381.0,626.4 L 381.0,626.3 L 381.0,626.3 L 381.0,626.2 L 381.0,626.2 L 381.0,626.1 L 380.5,626.1 Z" style="fill:#000000;fill-rule:evenodd;fill-opacity:1;stroke:#000000;stroke-width:0.0px;stroke-linecap:butt;stroke-linejoin:miter;stroke-opacity:1;"/>
<path class="bond-0 atom-0 atom-1" d="M 600.1,613.5 L 610.6,616.9" style="fill:none;fill-rule:evenodd;stroke:#FF0000;stroke-width:2.0px;stroke-linecap:butt;stroke-linejoin:miter;stroke-opacity:1"/>
<path class="bond-0 atom-0 atom-1" d="M 610.6,616.9 L 621.1,620.3" style="fill:none;fill-rule:evenodd;stroke:#000000;stroke-width:2.0px;stroke-linecap:butt;stroke-linejoin:miter;stroke-opacity:1"/>
<path class="bond-1 atom-1 atom-2" d="M 621.1,620.3 L 631.9,623.8" style="fill:none;fill-rule:evenodd;stroke:#000000;stroke-width:2.0px;stroke-linecap:butt;stroke-linejoin:miter;stroke-opacity:1"/>
<path class="bond-1 atom-1 atom-2" d="M 631.9,623.8 L 642.7,627.3" style="fill:none;fill-rule:evenodd;stroke:#0000FF;stroke-width:2.0px;stroke-linecap:butt;stroke-linejoin:miter;stroke-opacity:1"/>
<path class="bond-1 atom-1 atom-2" d="M 622.7,626.3 L 630.3,628.8" style="fill:none;fill-rule:evenodd;stroke:#000000;stroke-width:2.0px;stroke-linecap:butt;stroke-linejoin:miter;stroke-opacity:1"/>
<path class="bond-1 atom-1 atom-2" d="M 630.3,628.8 L 637.9,631.2" style="fill:none;fill-rule:evenodd;stroke:#0000FF;stroke-width:2.0px;stroke-linecap:butt;stroke-linejoin:miter;stroke-opacity:1"/>
<path class="bond-1 atom-1 atom-2" d="M 626.0,616.3 L 633.5,618.7" style="fill:none;fill-rule:evenodd;stroke:#000000;stroke-width:2.0px;stroke-linecap:butt;stroke-linejoin:miter;stroke-opacity:1"/>
<path class="bond-1 atom-1 atom-2" d="M 633.5,618.7 L 641.1,621.2" style="fill:none;fill-rule:evenodd;stroke:#0000FF;stroke-width:2.0px;stroke-linecap:butt;stroke-linejoin:miter;stroke-opacity:1"/>
<path class="bond-2 atom-2 atom-3" d="M 649.7,629.5 L 668.0,635.4" style="fill:none;fill-rule:evenodd;stroke:#0000FF;stroke-width:2.0px;stroke-linecap:butt;stroke-linejoin:miter;stroke-opacity:1"/>
<path class="bond-3 atom-3 atom-4" d="M 676.3,632.1 L 682.2,626.7" style="fill:none;fill-rule:evenodd;stroke:#0000FF;stroke-width:2.0px;stroke-linecap:butt;stroke-linejoin:miter;stroke-opacity:1"/>
<path class="bond-3 atom-3 atom-4" d="M 682.2,626.7 L 688.1,621.4" style="fill:none;fill-rule:evenodd;stroke:#CCCC00;stroke-width:2.0px;stroke-linecap:butt;stroke-linejoin:miter;stroke-opacity:1"/>
<path class="bond-4 atom-4 atom-5" d="M 694.1,619.8 L 703.4,622.8" style="fill:none;fill-rule:evenodd;stroke:#CCCC00;stroke-width:2.0px;stroke-linecap:butt;stroke-linejoin:miter;stroke-opacity:1"/>
<path class="bond-4 atom-4 atom-5" d="M 703.4,622.8 L 712.7,625.8" style="fill:none;fill-rule:evenodd;stroke:#0000FF;stroke-width:2.0px;stroke-linecap:butt;stroke-linejoin:miter;stroke-opacity:1"/>
<path class="bond-5 atom-5 atom-6" d="M 721.1,622.5 L 726.7,617.4" style="fill:none;fill-rule:evenodd;stroke:#0000FF;stroke-width:2.0px;stroke-linecap:butt;stroke-linejoin:miter;stroke-opacity:1"/>
<path class="bond-5 atom-5 atom-6" d="M 726.7,617.4 L 732.4,612.3" style="fill:none;fill-rule:evenodd;stroke:#00CC00;stroke-width:2.0px;stroke-linecap:butt;stroke-linejoin:miter;stroke-opacity:1"/>
<path class="atom-0" d="M 592.5 612.2 Q 592.5 610.4, 593.4 609.4 Q 594.3 608.3, 596.0 608.3 Q 597.6 608.3, 598.5 609.4 Q 599.4 610.4, 599.4 612.2 Q 599.4 614.0, 598.5 615.0 Q 597.6 616.0, 596.0 616.0 Q 594.3 616.0, 593.4 615.0 Q 592.5 614.0, 592.5 612.2 M 596.0 615.2 Q 597.1 615.2, 597.7 614.4 Q 598.3 613.7, 598.3 612.2 Q 598.3 610.7, 597.7 609.9 Q 597.1 609.2, 596.0 609.2 Q 594.8 609.2, 594.2 609.9 Q 593.6 610.7, 593.6 612.2 Q 593.6 613.7, 594.2 614.4 Q 594.8 615.2, 596.0 615.2 " fill="#FF0000"/>
<path class="atom-0" d="M 599.7 609.6 L 602.3 609.6 L 602.3 610.1 L 599.7 610.1 L 599.7 609.6 " fill="#FF0000"/>
<path class="atom-2" d="M 644.6 624.6 L 647.0 628.6 Q 647.3 629.0, 647.7 629.7 Q 648.1 630.4, 648.1 630.5 L 648.1 624.6 L 649.1 624.6 L 649.1 632.1 L 648.1 632.1 L 645.4 627.8 Q 645.1 627.3, 644.8 626.7 Q 644.5 626.1, 644.4 625.9 L 644.4 632.1 L 643.4 632.1 L 643.4 624.6 L 644.6 624.6 " fill="#0000FF"/>
<path class="atom-2" d="M 649.7 626.0 L 651.0 626.0 L 651.0 624.6 L 651.6 624.6 L 651.6 626.0 L 653.0 626.0 L 653.0 626.5 L 651.6 626.5 L 651.6 627.9 L 651.0 627.9 L 651.0 626.5 L 649.7 626.5 L 649.7 626.0 " fill="#0000FF"/>
<path class="atom-3" d="M 669.7 632.8 L 672.2 636.7 Q 672.4 637.1, 672.8 637.8 Q 673.2 638.5, 673.2 638.6 L 673.2 632.8 L 674.2 632.8 L 674.2 640.3 L 673.2 640.3 L 670.6 635.9 Q 670.3 635.4, 669.9 634.8 Q 669.6 634.2, 669.5 634.1 L 669.5 640.3 L 668.6 640.3 L 668.6 632.8 L 669.7 632.8 " fill="#0000FF"/>
<path class="atom-3" d="M 674.9 634.1 L 676.2 634.1 L 676.2 632.7 L 676.8 632.7 L 676.8 634.1 L 678.1 634.1 L 678.1 634.6 L 676.8 634.6 L 676.8 636.0 L 676.2 636.0 L 676.2 634.6 L 674.9 634.6 L 674.9 634.1 " fill="#0000FF"/>
<path class="atom-4" d="M 688.9 621.4 Q 689.0 621.4, 689.3 621.5 Q 689.7 621.7, 690.0 621.8 Q 690.4 621.9, 690.8 621.9 Q 691.5 621.9, 691.9 621.5 Q 692.4 621.2, 692.4 620.6 Q 692.4 620.2, 692.1 619.9 Q 691.9 619.7, 691.6 619.5 Q 691.3 619.4, 690.8 619.2 Q 690.1 619.0, 689.7 618.8 Q 689.3 618.6, 689.0 618.2 Q 688.8 617.8, 688.8 617.2 Q 688.8 616.2, 689.4 615.6 Q 690.0 615.1, 691.3 615.1 Q 692.2 615.1, 693.2 615.5 L 692.9 616.3 Q 692.0 615.9, 691.3 615.9 Q 690.6 615.9, 690.2 616.2 Q 689.8 616.5, 689.8 617.0 Q 689.8 617.4, 690.0 617.7 Q 690.2 617.9, 690.5 618.1 Q 690.8 618.2, 691.3 618.4 Q 692.0 618.6, 692.4 618.8 Q 692.8 619.0, 693.1 619.4 Q 693.4 619.9, 693.4 620.6 Q 693.4 621.6, 692.7 622.2 Q 692.0 622.7, 690.9 622.7 Q 690.2 622.7, 689.7 622.6 Q 689.2 622.4, 688.6 622.2 L 688.9 621.4 " fill="#CCCC00"/>
<path class="atom-5" d="M 714.5 623.2 L 716.9 627.1 Q 717.2 627.5, 717.6 628.2 Q 718.0 629.0, 718.0 629.0 L 718.0 623.2 L 719.0 623.2 L 719.0 630.7 L 718.0 630.7 L 715.3 626.3 Q 715.0 625.8, 714.7 625.2 Q 714.4 624.7, 714.3 624.5 L 714.3 630.7 L 713.3 630.7 L 713.3 623.2 L 714.5 623.2 " fill="#0000FF"/>
<path class="atom-5" d="M 719.6 624.5 L 720.9 624.5 L 720.9 623.1 L 721.5 623.1 L 721.5 624.5 L 722.9 624.5 L 722.9 625.0 L 721.5 625.0 L 721.5 626.4 L 720.9 626.4 L 720.9 625.0 L 719.6 625.0 L 719.6 624.5 " fill="#0000FF"/>
<path class="atom-5" d="M 713.2 631.4 L 714.2 631.4 L 714.2 634.6 L 718.1 634.6 L 718.1 631.4 L 719.1 631.4 L 719.1 638.9 L 718.1 638.9 L 718.1 635.4 L 714.2 635.4 L 714.2 638.9 L 713.2 638.9 L 713.2 631.4 " fill="#0000FF"/>
<path class="atom-5" d="M 719.4 638.6 Q 719.6 638.2, 720.0 637.9 Q 720.5 637.6, 721.1 637.6 Q 721.8 637.6, 722.2 638.0 Q 722.7 638.5, 722.7 639.2 Q 722.7 639.9, 722.1 640.6 Q 721.6 641.3, 720.5 642.1 L 722.7 642.1 L 722.7 642.6 L 719.4 642.6 L 719.4 642.2 Q 720.3 641.5, 720.9 641.0 Q 721.4 640.5, 721.7 640.1 Q 722.0 639.7, 722.0 639.2 Q 722.0 638.7, 721.7 638.5 Q 721.5 638.2, 721.1 638.2 Q 720.7 638.2, 720.4 638.4 Q 720.2 638.5, 720.0 638.9 L 719.4 638.6 " fill="#0000FF"/>
<path class="atom-6" d="M 732.9 609.5 Q 732.9 607.6, 733.7 606.6 Q 734.6 605.7, 736.3 605.7 Q 737.8 605.7, 738.6 606.7 L 737.9 607.3 Q 737.3 606.5, 736.3 606.5 Q 735.1 606.5, 734.5 607.3 Q 733.9 608.0, 733.9 609.5 Q 733.9 610.9, 734.6 611.7 Q 735.2 612.5, 736.4 612.5 Q 737.2 612.5, 738.2 612.0 L 738.5 612.8 Q 738.1 613.0, 737.5 613.2 Q 736.9 613.3, 736.2 613.3 Q 734.6 613.3, 733.7 612.3 Q 732.9 611.3, 732.9 609.5 " fill="#00CC00"/>
<path class="atom-6" d="M 739.5 605.2 L 740.5 605.2 L 740.5 613.2 L 739.5 613.2 L 739.5 605.2 " fill="#00CC00"/>
<path d="M 673.0,641.0 L 673.0,641.0 L 673.0,641.0 L 673.0,640.9 L 672.9,640.9 L 672.9,640.8 L 672.9,640.8 L 672.9,640.7 L 672.9,640.7 L 672.8,640.7 L 672.8,640.6 L 672.8,640.6 L 672.7,640.6 L 672.7,640.6 L 672.6,640.5 L 672.6,640.5 L 672.5,640.5 L 672.5,640.5 L 672.5,640.5 L 672.4,640.5 L 672.4,640.5 L 672.3,640.5 L 672.3,640.5 L 672.2,640.6 L 672.2,640.6 L 672.2,640.6 L 672.1,640.6 L 672.1,640.7 L 672.1,640.7 L 672.0,640.7 L 672.0,640.8 L 672.0,640.8 L 672.0,640.8 L 671.9,640.9 L 671.9,640.9 L 671.9,641.0 L 671.9,641.0 L 671.9,641.1 L 671.9,641.1 L 671.9,641.2 L 671.9,641.2 L 672.0,641.2 L 672.0,641.3 L 672.0,641.3 L 672.0,641.4 L 672.1,641.4 L 672.1,641.4 L 672.1,641.5 L 672.2,641.5 L 672.2,641.5 L 672.2,641.5 L 672.3,641.5 L 672.3,641.6 L 672.4,641.6 L 672.4,641.6 L 672.5,641.6 L 672.5,641.6 L 672.5,641.6 L 672.6,641.6 L 672.6,641.5 L 672.7,641.5 L 672.7,641.5 L 672.8,641.5 L 672.8,641.4 L 672.8,641.4 L 672.9,641.4 L 672.9,641.3 L 672.9,641.3 L 672.9,641.3 L 672.9,641.2 L 673.0,641.2 L 673.0,641.1 L 673.0,641.1 L 673.0,641.0 L 672.4,641.0 Z" style="fill:#000000;fill-rule:evenodd;fill-opacity:1;stroke:#000000;stroke-width:0.0px;stroke-linecap:butt;stroke-linejoin:miter;stroke-opacity:1;"/>
<path d="M 670.9,641.0 L 670.9,641.0 L 670.9,641.0 L 670.8,640.9 L 670.8,640.9 L 670.8,640.8 L 670.8,640.8 L 670.8,640.7 L 670.7,640.7 L 670.7,640.7 L 670.7,640.6 L 670.6,640.6 L 670.6,640.6 L 670.6,640.6 L 670.5,640.5 L 670.5,640.5 L 670.4,640.5 L 670.4,640.5 L 670.3,640.5 L 670.3,640.5 L 670.3,640.5 L 670.2,640.5 L 670.2,640.5 L 670.1,640.6 L 670.1,640.6 L 670.0,640.6 L 670.0,640.6 L 670.0,640.7 L 669.9,640.7 L 669.9,640.7 L 669.9,640.8 L 669.9,640.8 L 669.8,640.8 L 669.8,640.9 L 669.8,640.9 L 669.8,641.0 L 669.8,641.0 L 669.8,641.1 L 669.8,641.1 L 669.8,641.2 L 669.8,641.2 L 669.8,641.2 L 669.9,641.3 L 669.9,641.3 L 669.9,641.4 L 669.9,641.4 L 670.0,641.4 L 670.0,641.5 L 670.0,641.5 L 670.1,641.5 L 670.1,641.5 L 670.2,641.5 L 670.2,641.6 L 670.3,641.6 L 670.3,641.6 L 670.3,641.6 L 670.4,641.6 L 670.4,641.6 L 670.5,641.6 L 670.5,641.5 L 670.6,641.5 L 670.6,641.5 L 670.6,641.5 L 670.7,641.4 L 670.7,641.4 L 670.7,641.4 L 670.8,641.3 L 670.8,641.3 L 670.8,641.3 L 670.8,641.2 L 670.8,641.2 L 670.9,641.1 L 670.9,641.1 L 670.9,641.0 L 670.3,641.0 Z" style="fill:#000000;fill-rule:evenodd;fill-opacity:1;stroke:#000000;stroke-width:0.0px;stroke-linecap:butt;stroke-linejoin:miter;stroke-opacity:1;"/>
</svg>